{"extensionsUsed" : ["KHR_materials_pbrSpecularGlossiness"], "accessors" : [{"bufferView" : 0, "byteOffset" : 0, "componentType" : 5123, "count" : 324, "type" : "SCALAR", "max" : [261], "min" : [0]}, {"bufferView" : 1, "byteOffset" : 0, "componentType" : 5126, "count" : 262, "type" : "VEC3", "max" : [6.058899879455566, 2.348900079727173, 0.5], "min" : [-6.058899879455566, -2.348900079727173, -0.5], "name" : "POSITION"}, {"bufferView" : 1, "byteOffset" : 12, "componentType" : 5126, "count" : 262, "type" : "VEC3", "max" : [0.9308139681816101, 0.99986332654953, 1.0000044107437134], "min" : [-1.0000044107437134, -0.99986332654953, -1.0000044107437134], "name" : "NORMAL"}, {"bufferView" : 1, "byteOffset" : 24, "componentType" : 5126, "count" : 262, "type" : "VEC2", "max" : [0.9869999885559082, 0.989300012588501], "min" : [0.006200000178068876, 0.009199976921081543], "name" : "TEXCOORD_0"}, {"bufferView" : 1, "byteOffset" : 32, "componentType" : 5126, "count" : 262, "type" : "VEC3", "max" : [1, 1, 1], "min" : [1, 1, 1], "name" : "COLOR_0"}], "asset" : {"generator" : "Aspose.3D 21.8.1", "version" : "2.0"}, "buffers" : [{"uri" : "data:application/octet-stream;base64,", "byteLength" : 14912}], "bufferViews" : [{"buffer" : 0, "byteOffset" : 0, "byteLength" : 648, "target" : 34963}, {"buffer" : 0, "byteOffset" : 652, "byteLength" : 14256, "byteStride" : 44, "target" : 34962}], "images" : [{"uri" : "data:image/png;base64,"}, {"uri" : "data:image/png;base64,"}, {"uri" : "data:image/png;base64,"}, {"uri" : "data:image/png;base64,"}], "materials" : [{"name" : "", "extensions" : {"KHR_materials_pbrSpecularGlossiness" : {"diffuseFactor" : [1, 1, 1, 1], "diffuseTexture" : {"index" : 0, "texCoord" : 0}, "specularFactor" : [1, 1, 1], "glossinessFactor" : 1, "specularGlossinessTexture" : {"index" : 1, "texCoord" : 0, "scale" : 1}}}, "pbrMetallicRoughness" : {"baseColorFactor" : [1, 1, 1, 1], "baseColorTexture" : {"index" : 2, "texCoord" : 0}, "metallicFactor" : 1, "roughnessFactor" : 1, "metallicRoughnessTexture" : {"index" : 3, "texCoord" : 0}}, "emissiveFactor" : [0, 0, 0], "alphaMode" : "OPAQUE", "doubleSided" : true}], "meshes" : [{"primitives" : [{"attributes" : {"POSITION" : 1, "NORMAL" : 2, "TEXCOORD_0" : 3, "COLOR_0" : 4}, "indices" : 0, "material" : 0, "mode" : 4}]}], "nodes" : [{"matrix" : [0.042526938021183014, 0, 0, 0, 0, 0.042526938021183014, 0, 0, 0, 0, 0.042526938021183014, 0, 0.0016664429567754269, 0.0006460418808273971, 0.2558624744415283, 1], "mesh" : 0, "name" : "node_id3"}, {"children" : [0], "name" : "root"}], "samplers" : [{"magFilter" : 9728, "minFilter" : 9985, "wrapS" : 10497, "wrapT" : 10497}, {"magFilter" : 9728, "minFilter" : 9985, "wrapS" : 10497, "wrapT" : 10497}, {"magFilter" : 9728, "minFilter" : 9985, "wrapS" : 10497, "wrapT" : 10497}, {"magFilter" : 9728, "minFilter" : 9985, "wrapS" : 10497, "wrapT" : 10497}], "scene" : 0, "scenes" : [{"nodes" : [1]}], "textures" : [{"sampler" : 0, "source" : 0}, {"sampler" : 1, "source" : 1}, {"sampler" : 2, "source" : 2}, {"sampler" : 3, "source" : 3}]}